<svg width="91" height="91" viewBox="0 0 91 91" fill="none" xmlns="http://www.w3.org/2000/svg">
<path d="M90.2386 41.6369C90.1906 41.1594 90.0119 40.7043 89.7222 40.3217C89.4325 39.9391 89.0429 39.6437 88.5964 39.4679L81.3456 36.5707C80.4624 32.9943 79.0415 29.5727 77.1315 26.4227L80.2146 19.2494C80.4094 18.8073 80.4778 18.3199 80.4122 17.8412C80.3465 17.3626 80.1494 16.9115 79.8428 16.5382C79.0371 15.5621 78.154 14.617 77.2554 13.7029C76.3568 12.7888 75.3963 11.9212 74.4202 11.1156C74.0469 10.8089 73.5958 10.6118 73.1172 10.5462C72.6385 10.4805 72.151 10.5489 71.7089 10.7437L64.5356 13.8269C61.3857 11.9169 57.9641 10.496 54.3877 9.61275L51.4905 2.362C51.3147 1.91542 51.0193 1.5259 50.6367 1.2362C50.254 0.946492 49.799 0.767802 49.3215 0.71974C48.051 0.595796 46.7651 0.549316 45.4792 0.549316C44.1933 0.549316 42.9073 0.595796 41.6369 0.71974C41.1594 0.767802 40.7043 0.946492 40.3217 1.2362C39.9391 1.5259 39.6437 1.91542 39.4679 2.362L36.5707 9.61275C32.9943 10.496 29.5727 11.9169 26.4227 13.8269L19.2494 10.7437C18.8073 10.5489 18.3199 10.4805 17.8412 10.5462C17.3626 10.6118 16.9115 10.8089 16.5382 11.1156C15.5621 11.9212 14.617 12.8043 13.7029 13.7029C12.7888 14.6015 11.9212 15.5621 11.1156 16.5382C10.8089 16.9115 10.6118 17.3626 10.5462 17.8412C10.4805 18.3199 10.5489 18.8073 10.7437 19.2494L13.8269 26.4227C11.9169 29.5727 10.496 32.9943 9.61275 36.5707L2.362 39.4679C1.91542 39.6437 1.5259 39.9391 1.2362 40.3217C0.946492 40.7043 0.767802 41.1594 0.71974 41.6369C0.595796 42.9073 0.549316 44.1933 0.549316 45.4792C0.549316 46.7651 0.595796 48.051 0.71974 49.3215C0.767802 49.799 0.946492 50.254 1.2362 50.6367C1.5259 51.0193 1.91542 51.3147 2.362 51.4905L9.61275 54.3877C10.496 57.9641 11.9169 61.3857 13.8269 64.5356L10.7437 71.7089C10.5489 72.151 10.4805 72.6385 10.5462 73.1172C10.6118 73.5958 10.8089 74.0469 11.1156 74.4202C11.9212 75.3963 12.8043 76.3413 13.7029 77.2554C14.6015 78.1695 15.5621 79.0371 16.5382 79.8428C16.9115 80.1494 17.3626 80.3465 17.8412 80.4122C18.3199 80.4778 18.8073 80.4094 19.2494 80.2146L26.4227 77.1315C29.5727 79.0415 32.9943 80.4624 36.5707 81.3456L39.4679 88.5964C39.6437 89.0429 39.9391 89.4325 40.3217 89.7222C40.7043 90.0119 41.1594 90.1906 41.6369 90.2386C42.9073 90.3626 44.1933 90.409 45.4792 90.409C46.7651 90.409 48.051 90.3626 49.3215 90.2386C49.799 90.1906 50.254 90.0119 50.6367 89.7222C51.0193 89.4325 51.3147 89.0429 51.4905 88.5964L54.3877 81.3456C57.9641 80.4624 61.3857 79.0415 64.5356 77.1315L71.7089 80.2146C72.151 80.4094 72.6385 80.4778 73.1172 80.4122C73.5958 80.3465 74.0469 80.1494 74.4202 79.8428C75.3963 79.0371 76.3413 78.154 77.2554 77.2554C78.1695 76.3568 79.0371 75.3963 79.8428 74.4202C80.1494 74.0469 80.3465 73.5958 80.4122 73.1172C80.4778 72.6385 80.4094 72.151 80.2146 71.7089L77.1315 64.5356C79.0415 61.3857 80.4624 57.9641 81.3456 54.3877L88.5964 51.4905C89.0429 51.3147 89.4325 51.0193 89.7222 50.6367C90.0119 50.254 90.1906 49.799 90.2386 49.3215C90.3626 48.051 90.409 46.7651 90.409 45.4792C90.409 44.1933 90.3626 42.9073 90.2386 41.6369ZM45.4792 73.3667C39.9636 73.3667 34.5718 71.7311 29.9857 68.6668C25.3996 65.6025 21.8252 61.247 19.7145 56.1513C17.6038 51.0555 17.0515 45.4482 18.1275 40.0386C19.2036 34.629 21.8596 29.6599 25.7597 25.7597C29.6599 21.8596 34.629 19.2036 40.0386 18.1275C45.4482 17.0515 51.0555 17.6038 56.1513 19.7145C61.247 21.8252 65.6025 25.3996 68.6668 29.9857C71.7311 34.5718 73.3667 39.9636 73.3667 45.4792C73.3556 52.872 70.4139 59.9589 65.1864 65.1864C59.9589 70.4139 52.872 73.3556 45.4792 73.3667Z" fill="#CCD0DA"/>
<path d="M45.4792 68.7188C58.314 68.7188 68.7188 58.3141 68.7188 45.4792C68.7188 32.6443 58.314 22.2396 45.4792 22.2396C32.6443 22.2396 22.2396 32.6443 22.2396 45.4792C22.2396 58.3141 32.6443 68.7188 45.4792 68.7188Z" fill="#FAA116"/>
<path d="M45.4792 14.493C39.3507 14.493 33.3598 16.3103 28.2642 19.7151C23.1686 23.1199 19.197 27.9593 16.8517 33.6213C14.5065 39.2833 13.8928 45.5135 15.0884 51.5242C16.2841 57.535 19.2352 63.0562 23.5687 67.3896C27.9022 71.7231 33.4234 74.6743 39.4341 75.8699C45.4448 77.0655 51.6751 76.4519 57.337 74.1066C62.999 71.7613 67.8384 67.7898 71.2432 62.6941C74.648 57.5985 76.4653 51.6076 76.4653 45.4792C76.4571 37.2636 73.1898 29.387 67.3806 23.5777C61.5714 17.7685 53.6947 14.5012 45.4792 14.493ZM45.4792 73.3667C39.9635 73.3667 34.5718 71.7311 29.9857 68.6668C25.3996 65.6024 21.8252 61.247 19.7145 56.1512C17.6037 51.0555 17.0515 45.4482 18.1275 40.0386C19.2036 34.6289 21.8596 29.6598 25.7597 25.7597C29.6599 21.8596 34.6289 19.2035 40.0386 18.1275C45.4482 17.0515 51.0555 17.6037 56.1513 19.7145C61.247 21.8252 65.6025 25.3996 68.6668 29.9857C71.7311 34.5718 73.3667 39.9635 73.3667 45.4792C73.3556 52.872 70.4139 59.9589 65.1864 65.1864C59.9589 70.4139 52.872 73.3556 45.4792 73.3667Z" fill="#B9BFCC"/>
<path d="M51.6764 43.9299C51.4045 43.9296 51.1375 43.8578 50.9021 43.7217C50.6667 43.5855 50.4714 43.3898 50.3356 43.1543C50.1998 42.9187 50.1284 42.6515 50.1286 42.3796C50.1288 42.1077 50.2005 41.8407 50.3365 41.6053C50.4726 41.3699 50.6682 41.1744 50.9037 41.0386C51.1392 40.9027 51.4064 40.8312 51.6783 40.8313C51.9502 40.8313 52.2173 40.903 52.4527 41.0389C52.6882 41.1749 52.8837 41.3705 53.0196 41.6059C53.2316 41.9485 53.5686 42.195 53.9592 42.2933C54.3498 42.3916 54.7634 42.3338 55.1122 42.1323C55.461 41.9309 55.7176 41.6014 55.8276 41.2139C55.9376 40.8264 55.8924 40.4113 55.7015 40.0566C55.2935 39.35 54.7068 38.7633 54.0002 38.3554C53.2936 37.9474 52.4921 37.7327 51.6762 37.7327C50.8604 37.7327 50.0588 37.9474 49.3523 38.3554C48.6457 38.7633 48.059 39.3501 47.651 40.0567C47.2431 40.7633 47.0283 41.5648 47.0284 42.3807C47.0284 43.1965 47.2431 43.998 47.6511 44.7046C48.0591 45.4112 48.6458 45.9979 49.3524 46.4058C50.059 46.8138 50.8605 47.0285 51.6764 47.0285C51.9483 47.0288 52.2153 47.1006 52.4507 47.2367C52.686 47.3729 52.8814 47.5686 53.0172 47.8041C53.153 48.0397 53.2243 48.3069 53.2242 48.5788C53.224 48.8506 53.1523 49.1177 53.0162 49.3531C52.8802 49.5885 52.6846 49.784 52.449 49.9198C52.2135 50.0557 51.9464 50.1272 51.6745 50.1271C51.4026 50.127 51.1355 50.0554 50.9001 49.9194C50.6646 49.7835 50.4691 49.5879 50.3331 49.3525C50.1212 49.0099 49.7842 48.7634 49.3936 48.6651C49.0029 48.5668 48.5894 48.6245 48.2406 48.826C47.8918 49.0275 47.6352 49.357 47.5252 49.7444C47.4152 50.1319 47.4604 50.5471 47.6513 50.9018C48.0592 51.6083 48.646 52.1951 49.3526 52.603C50.0591 53.011 50.8606 53.2257 51.6765 53.2257C52.4924 53.2257 53.2939 53.0109 54.0005 52.603C54.7071 52.195 55.2938 51.6083 55.7017 50.9017C56.1097 50.1951 56.3244 49.3936 56.3244 48.5777C56.3244 47.7618 56.1096 46.9603 55.7017 46.2538C55.2937 45.5472 54.707 44.9605 54.0004 44.5525C53.2938 44.1446 52.4923 43.9299 51.6764 43.9299Z" fill="white"/>
<path d="M43.9299 37.7327H37.7326C37.3217 37.7327 36.9277 37.8959 36.6371 38.1864C36.3466 38.477 36.1833 38.8711 36.1833 39.282C36.1833 39.6929 36.3466 40.0869 36.6371 40.3775C36.9277 40.668 37.3217 40.8313 37.7326 40.8313H40.8313V48.5778C40.8313 48.9887 40.668 49.3828 40.3775 49.6733C40.0869 49.9639 39.6929 50.1271 39.2819 50.1271C38.871 50.1271 38.477 49.9639 38.1864 49.6733C37.8959 49.3828 37.7326 48.9887 37.7326 48.5778V47.0285C37.7326 46.6176 37.5694 46.2235 37.2789 45.933C36.9883 45.6424 36.5942 45.4792 36.1833 45.4792C35.7724 45.4792 35.3784 45.6424 35.0878 45.933C34.7973 46.2235 34.634 46.6176 34.634 47.0285V48.5778C34.634 49.8105 35.1237 50.9927 35.9954 51.8644C36.867 52.736 38.0492 53.2257 39.2819 53.2257C40.5147 53.2257 41.6969 52.736 42.5685 51.8644C43.4402 50.9927 43.9299 49.8105 43.9299 48.5778V40.8313C44.3408 40.8313 44.7348 40.668 45.0254 40.3775C45.3159 40.0869 45.4792 39.6929 45.4792 39.282C45.4792 38.8711 45.3159 38.477 45.0254 38.1864C44.7348 37.8959 44.3408 37.7327 43.9299 37.7327Z" fill="white"/>
<path d="M31.1698 53.2257C30.348 53.2257 29.5598 52.8993 28.9787 52.3182C28.3976 51.7371 28.0712 50.9489 28.0712 50.1271V49.3091C28.0715 49.0685 28.0152 48.8313 27.907 48.6165L27.3771 47.5584C27.0568 46.9123 26.8901 46.201 26.8901 45.48C26.8901 44.7589 27.0568 44.0476 27.3771 43.4016L27.907 42.3419C28.0152 42.1271 28.0715 41.8898 28.0712 41.6493V40.8313C28.0712 40.0095 28.3976 39.2213 28.9787 38.6402C29.5598 38.0591 30.348 37.7327 31.1698 37.7327C31.5807 37.7327 31.9748 37.8959 32.2653 38.1864C32.5559 38.477 32.7191 38.8711 32.7191 39.282C32.7191 39.6929 32.5559 40.0869 32.2653 40.3775C31.9748 40.668 31.5807 40.8313 31.1698 40.8313V41.6493C31.1687 42.3705 31.0006 43.0816 30.6787 43.7269L30.1488 44.7867C30.0426 45.0023 29.9874 45.2395 29.9874 45.48C29.9874 45.7204 30.0426 45.9576 30.1488 46.1733L30.6787 47.2315C31.0006 47.8768 31.1687 48.5879 31.1698 49.3091V50.1271C31.5807 50.1271 31.9748 50.2903 32.2653 50.5809C32.5559 50.8714 32.7191 51.2655 32.7191 51.6764C32.7191 52.0873 32.5559 52.4814 32.2653 52.7719C31.9748 53.0625 31.5807 53.2257 31.1698 53.2257Z" fill="#DD7800"/>
<path d="M59.7886 53.2257C59.3777 53.2257 58.9836 53.0625 58.693 52.7719C58.4025 52.4814 58.2393 52.0873 58.2393 51.6764C58.2393 51.2655 58.4025 50.8714 58.693 50.5809C58.9836 50.2903 59.3777 50.1271 59.7886 50.1271V49.3091C59.7897 48.5879 59.9578 47.8768 60.2797 47.2315L60.8096 46.1717C60.9158 45.956 60.971 45.7188 60.971 45.4784C60.971 45.238 60.9158 45.0008 60.8096 44.7851L60.2797 43.7269C59.9578 43.0816 59.7897 42.3705 59.7886 41.6493V40.8313C59.3777 40.8313 58.9836 40.668 58.693 40.3775C58.4025 40.0869 58.2393 39.6929 58.2393 39.282C58.2393 38.8711 58.4025 38.477 58.693 38.1864C58.9836 37.8959 59.3777 37.7327 59.7886 37.7327C60.6104 37.7327 61.3985 38.0591 61.9796 38.6402C62.5607 39.2213 62.8872 40.0095 62.8872 40.8313V41.6493C62.8869 41.8898 62.9431 42.1271 63.0514 42.3419L63.5813 43.4C63.9016 44.046 64.0682 44.7574 64.0682 45.4784C64.0682 46.1995 63.9016 46.9108 63.5813 47.5568L63.0514 48.6165C62.9431 48.8313 62.8869 49.0685 62.8872 49.3091V50.1271C62.8872 50.9489 62.5607 51.7371 61.9796 52.3182C61.3985 52.8993 60.6104 53.2257 59.7886 53.2257Z" fill="#DD7800"/>
</svg>
