<svg width="29" height="21" viewBox="0 0 29 21" fill="none" xmlns="http://www.w3.org/2000/svg">
<path d="M15.1425 20.2321L9.1928 20.1236C7.26643 20.0858 5.33526 20.1613 3.44666 19.7696C0.573661 19.1845 0.370127 16.3153 0.157151 13.9087C-0.136309 10.5252 -0.0227016 7.08034 0.531094 3.72512C0.843731 1.84249 2.07408 0.719113 3.97677 0.596868C10.3998 0.153223 16.8655 0.2058 23.2742 0.412776C23.9511 0.43175 24.6326 0.535455 25.3 0.6535C28.5944 1.22924 28.6747 4.48061 28.8883 7.21765C29.1013 9.98293 29.0114 12.7624 28.6043 15.5089C28.2777 17.7829 27.6529 19.6898 25.0159 19.8739C21.7121 20.1146 18.484 20.3084 15.1708 20.2467C15.171 20.2321 15.1519 20.2321 15.1425 20.2321ZM11.6446 14.475C14.1344 13.0498 16.5767 11.6483 19.0522 10.2326C16.5578 8.80741 14.1202 7.40594 11.6446 5.99027V14.475Z" fill="#FF0000"/>
</svg>
