<svg width="81" height="82" viewBox="0 0 81 82" fill="none" xmlns="http://www.w3.org/2000/svg">
<path d="M64.3658 47.649V77.4342C64.3658 79.4073 62.7697 81.0159 60.7841 81.0159H20.5553C18.5822 81.0159 16.9735 79.4199 16.9735 77.4342V47.649C31.3257 57.3512 47.1231 57.3512 64.3658 47.649Z" fill="#FF003B"/>
<path d="M28.8373 69.768C28.3975 69.592 27.8068 69.4161 27.103 69.2527C26.5375 69.127 26.1102 69.0139 25.8086 68.9008C25.5069 68.7877 25.243 68.6369 25.0419 68.4484C24.8409 68.2599 24.7529 68.0211 24.7529 67.7195C24.7529 67.267 24.954 66.9151 25.3813 66.6638C25.8086 66.3999 26.3867 66.2742 27.0779 66.2742C27.8194 66.2742 28.5357 66.3873 29.2269 66.6386C29.3275 66.6763 29.4155 66.7015 29.4783 66.7015C29.6668 66.7015 29.8176 66.6261 29.9433 66.4878C30.0564 66.3496 30.1192 66.1988 30.1192 66.0354C30.1192 65.7212 29.9684 65.5076 29.6794 65.407C28.875 65.1054 27.9576 64.9546 26.9522 64.9546C26.1982 64.9546 25.5446 65.0803 25.0168 65.3316C24.4764 65.583 24.0617 65.9349 23.7852 66.3622C23.5087 66.7895 23.3705 67.2796 23.3705 67.8074C23.3705 68.4107 23.5464 68.9134 23.8857 69.2778C24.2125 69.6423 24.6146 69.9062 25.0796 70.0947C25.5321 70.2707 26.1102 70.4466 26.8642 70.6477C27.4298 70.7985 27.8445 70.9116 28.1336 71.0122C28.4226 71.1127 28.6614 71.2509 28.8625 71.4269C29.051 71.5903 29.139 71.7913 29.139 72.0427C29.139 73.0355 28.3975 73.5131 26.8642 73.5131C25.9342 73.5131 25.0419 73.3372 24.2376 72.9727C24.1496 72.935 24.0491 72.9099 23.9486 72.9099C23.76 72.9099 23.5967 72.9853 23.4836 73.1109C23.3705 73.2366 23.3076 73.4 23.3076 73.5634C23.3076 73.7016 23.3453 73.8273 23.4333 73.9404C23.5087 74.0535 23.6218 74.1415 23.7475 74.1917C24.7529 74.619 25.8463 74.8453 27.0025 74.8453C27.6937 74.8453 28.3095 74.7322 28.8499 74.4934C29.3903 74.2546 29.8176 73.9404 30.1067 73.5257C30.4083 73.1109 30.5591 72.6334 30.5591 72.1055C30.5591 71.4772 30.3957 70.9619 30.069 70.5849C29.6794 70.2204 29.2898 69.9439 28.8373 69.768Z" fill="white"/>
<path d="M37.9614 65.0802H31.2252C31.0367 65.0802 30.8858 65.143 30.7602 65.2813C30.6345 65.407 30.5717 65.5703 30.5717 65.7589C30.5717 65.9474 30.6345 66.0982 30.7602 66.2238C30.8858 66.3495 31.0492 66.4124 31.2252 66.4124H33.9021V74.0786C33.9021 74.2671 33.9649 74.443 34.1031 74.5687C34.2288 74.707 34.4048 74.7698 34.5933 74.7698C34.7944 74.7698 34.9577 74.6944 35.096 74.5687C35.2342 74.4305 35.3096 74.2671 35.3096 74.0786V66.4124H37.974C38.1625 66.4124 38.3133 66.3495 38.4515 66.2238C38.5772 66.0982 38.6526 65.9348 38.6526 65.7589C38.6526 65.5829 38.5898 65.407 38.4515 65.2813C38.3133 65.143 38.1499 65.0802 37.9614 65.0802Z" fill="white"/>
<path d="M46.4193 65.5704C45.703 65.1431 44.8484 64.9294 43.8933 64.9294C42.9381 64.9294 42.0835 65.1431 41.3546 65.5704C40.6257 65.9977 40.0602 66.5884 39.6706 67.3298C39.281 68.0713 39.0673 68.9259 39.0547 69.8936C39.0799 70.8488 39.281 71.7159 39.6706 72.4448C40.0602 73.1863 40.6257 73.777 41.3546 74.2043C42.0835 74.6316 42.9381 74.8452 43.8933 74.8452C44.8484 74.8452 45.703 74.6316 46.4193 74.2043C47.1357 73.777 47.7012 73.1863 48.1034 72.4448C48.5056 71.7034 48.7066 70.8362 48.7318 69.8936C48.7192 68.9511 48.5056 68.0839 48.1034 67.3424C47.7012 66.5884 47.1357 65.9977 46.4193 65.5704ZM43.8933 73.5005C43.1769 73.5005 42.5611 73.3371 42.0584 73.023C41.5431 72.7088 41.1535 72.2815 40.877 71.7285C40.6006 71.1881 40.4623 70.5597 40.4623 69.8811C40.4623 69.2024 40.6006 68.5615 40.877 68.0211C41.141 67.4807 41.5431 67.0534 42.0584 66.7392C42.5737 66.425 43.1895 66.2616 43.8933 66.2616C44.597 66.2616 45.2129 66.425 45.7281 66.7392C46.2434 67.0534 46.6456 67.4807 46.9095 68.0211C47.186 68.5615 47.3242 69.1898 47.3242 69.8811C47.3242 70.5597 47.186 71.1881 46.9095 71.7411C46.633 72.2815 46.2434 72.7213 45.7281 73.0355C45.2129 73.3497 44.597 73.5005 43.8933 73.5005Z" fill="white"/>
<path d="M57.7427 66.6637C57.504 66.1987 57.0892 65.8091 56.5363 65.5201C55.9833 65.231 55.2669 65.0802 54.3998 65.0802H51.3082C51.1071 65.0802 50.9437 65.1556 50.8055 65.2939C50.6672 65.4321 50.6044 65.5955 50.6044 65.7966V74.0786C50.6044 74.2797 50.6672 74.443 50.8055 74.5687C50.9311 74.707 51.1071 74.7698 51.2956 74.7698C51.4967 74.7698 51.66 74.6944 51.7983 74.5687C51.9365 74.4305 52.0119 74.2671 52.0119 74.0786V71.276H54.3872C55.2544 71.276 55.9707 71.1252 56.5237 70.8361C57.0767 70.5345 57.4788 70.1575 57.7302 69.6925C57.969 69.2275 58.0946 68.7248 58.0946 68.1844C58.0946 67.6314 57.9815 67.1287 57.7427 66.6637ZM56.6871 68.1718C56.6871 68.6745 56.5111 69.0893 56.1592 69.416C55.7948 69.7553 55.1664 69.9187 54.2741 69.9187H52.0245V66.4249H54.2741C55.1664 66.4249 55.7948 66.5883 56.1592 66.9276C56.5111 67.2544 56.6871 67.6691 56.6871 68.1718Z" fill="white"/>
<path opacity="0.1" d="M60.7212 50.9544V59.7391C60.7212 68.8129 53.3692 76.1524 44.308 76.1524H18.2303V77.4343C18.2303 78.7162 19.2734 79.7593 20.5553 79.7593H60.7966C62.0785 79.7593 63.1216 78.7162 63.1216 77.4343V49.7605C62.3173 50.1878 61.513 50.5648 60.7212 50.9544Z" fill="black"/>
<path opacity="0.1" d="M64.3658 47.649V52.6384C62.267 55.5163 60.8846 58.9222 60.4824 62.4662C60.3316 63.8486 60.2436 65.407 59.188 66.3119C57.8181 67.4932 55.6439 66.8774 54.0101 67.6315C51.7731 68.6494 51.4086 71.6154 50.0639 73.6639C48.3799 76.2277 45.15 77.2708 42.1086 77.6855C39.0673 78.1003 35.9128 78.0877 33.0851 79.269C32.1174 79.6712 31.2 80.2744 30.4208 81.0159H20.5553C18.5822 81.0159 16.9735 79.4073 16.9735 77.4342V47.649C31.3257 57.3512 47.1231 57.3512 64.3658 47.649Z" fill="white"/>
<path opacity="0.1" d="M46.6707 54.2847C43.7801 55.6672 41.1409 57.7282 39.5826 60.5308C38.8034 61.9132 38.2881 63.4716 37.2324 64.6655C34.5932 67.6315 29.7422 67.1665 26.3866 69.2904C24.225 70.6728 22.8803 72.9978 21.8749 75.348C21.0957 77.1828 20.4799 79.0931 19.6001 80.8777C18.092 80.4755 16.9735 79.0805 16.9735 77.4342V47.649C26.2609 53.9328 36.1642 56.1447 46.6707 54.2847Z" fill="white"/>
<path d="M61.9276 9.38083C50.2021 -2.34472 31.1245 -2.34472 19.4115 9.38083C7.69854 21.1064 7.68597 40.1839 19.4115 51.8969C25.268 57.7534 32.9719 60.6942 40.6758 60.6942C48.3798 60.6942 56.0711 57.766 61.9402 51.8969C73.6531 40.1714 73.6531 21.0938 61.9276 9.38083V9.38083ZM56.6995 14.6089C64.6422 22.5516 65.4214 34.9684 59.0873 43.816L27.4925 12.2211C31.4261 9.40596 36.0384 7.97326 40.6758 7.97326C46.4821 7.98583 52.2757 10.1851 56.6995 14.6089ZM24.6396 46.6688C16.6969 38.7261 15.9177 26.3093 22.2518 17.4618L53.8466 49.0441C44.9991 55.3781 32.5949 54.6115 24.6396 46.6688V46.6688Z" fill="#FF003B"/>
<path opacity="0.1" d="M61.9278 9.38084C55.7445 3.1976 47.5253 0.281921 39.4067 0.608678C46.6707 0.9103 53.8594 3.82598 59.4017 9.38084C71.1272 21.0938 71.1272 40.1714 59.4017 51.8969C53.8594 57.4392 46.6833 60.3675 39.4067 60.6691C39.8214 60.6817 40.2487 60.7068 40.6509 60.7068C48.3422 60.7068 56.0587 57.766 61.9152 51.9095C73.6533 40.1714 73.6533 21.0938 61.9278 9.38084Z" fill="black"/>
<path opacity="0.1" d="M61.9275 9.38095C50.202 -2.34459 31.1244 -2.34459 19.4115 9.38095C7.68592 21.1065 7.68592 40.1715 19.4115 51.897C25.0669 57.5524 32.4692 60.4932 39.9092 60.6818C42.0205 58.5327 43.6292 55.9061 44.245 53.003C37.3077 54.1089 29.9682 51.9976 24.6396 46.6689C16.6969 38.7262 15.9177 26.3095 22.2517 17.4619L48.1284 43.3385C48.5431 43.1249 48.9704 42.8987 49.36 42.6096C51.1571 41.3403 51.9363 39.2038 52.2254 36.9668L27.4924 12.2212C31.4261 9.40608 36.0509 7.97338 40.6632 7.97338C46.4694 7.97338 52.2757 10.1727 56.6994 14.5965C57.8557 15.7527 58.8736 17.0095 59.7031 18.3291C61.5882 16.6953 63.4985 15.1243 65.4465 13.5911C64.4285 12.1207 63.2471 10.7005 61.9275 9.38095V9.38095Z" fill="white"/>
<path opacity="0.1" d="M19.4117 9.38085C8.12598 20.6665 7.69869 38.7387 18.1298 50.5271C19.839 48.5917 21.2842 46.4049 22.3902 44.0422C16.6217 36.1623 16.584 25.3794 22.2645 17.4492L28.2341 23.4188C30.735 22.6145 32.9846 21.3452 35.0709 19.7994L27.4926 12.2211C31.4263 9.40599 36.0511 7.97328 40.6634 7.97328C42.2972 7.97328 43.9184 8.13666 45.5145 8.50112C47.0477 6.3772 48.5559 4.20301 50.1519 2.1168C39.6957 -1.33928 27.7063 1.07369 19.4117 9.38085V9.38085Z" fill="white"/>
<path d="M27.4423 25.1909V37.9219H1.94273C1.0253 37.9219 0.283813 37.1804 0.283813 36.2629V26.8498C0.283813 25.9324 1.0253 25.1909 1.94273 25.1909H27.4423Z" fill="#FF9F3F"/>
<path d="M27.4423 25.1909H77.9011V37.9219H27.4423V25.1909Z" fill="#E6E6E6"/>
<path d="M25.7834 25.1909H29.1012V37.9219H25.7834V25.1909Z" fill="#F15A24"/>
<path opacity="0.05" d="M27.4423 33.5985H77.9011V37.9218H27.4423V33.5985Z" fill="black"/>
<path opacity="0.05" d="M27.4423 33.5985V37.9218H1.94273C1.0253 37.9218 0.283813 37.1803 0.283813 36.2628V33.5985H27.4423Z" fill="black"/>
<path opacity="0.1" d="M77.9011 25.1909V33.8123C72.8741 34.5286 67.7214 34.3904 62.7572 33.3473C59.5399 32.6812 56.2472 31.6381 53.055 32.3419C50.0891 32.9828 47.563 35.0565 44.5719 35.6346C39.3564 36.6651 34.1283 32.9702 28.8373 33.7117C25.5321 34.1767 22.6415 36.3635 19.3362 36.9039C16.8856 37.3186 14.3721 36.8159 11.9339 36.2881C9.49584 35.7728 6.98233 35.245 4.53165 35.622C3.13665 35.8482 1.75422 36.4138 0.660841 37.306C0.434625 37.0421 0.283813 36.6651 0.283813 36.2629V26.8373C0.283813 25.9324 1.0253 25.1783 1.94273 25.1783H77.9011V25.1909Z" fill="white"/>
<path opacity="0.1" d="M66.7537 25.1909C61.0103 27.5034 55.3298 29.8661 49.2722 29.2251C46.4947 28.9486 43.7927 28.0312 40.9902 28.0438C36.1768 28.094 31.3006 30.8966 26.7637 29.3005C25.0796 28.7098 23.5338 27.5285 21.7618 27.5411C19.4619 27.5536 17.6773 29.5267 15.5157 30.3185C12.0219 31.6255 8.20137 29.7781 4.4688 29.7781C3.01096 29.7781 1.59083 30.0923 0.258667 30.6578V26.8498C0.258667 25.945 1.00015 25.1909 1.91759 25.1909H66.7537Z" fill="white"/>
<path d="M77.6623 38.3491C77.3356 38.2737 77.0214 37.9721 76.9962 37.5825C76.9585 36.9792 77.5618 36.5896 77.7252 36.0241C77.8885 35.4711 77.612 34.8679 77.2727 34.4155C76.946 33.963 76.5438 33.5483 76.4056 32.9828C76.2673 32.4172 76.5941 31.6632 77.0968 31.7134C77.5115 30.9594 77.2224 29.9288 76.77 29.1874C76.3176 28.4459 75.7395 27.7924 75.5258 26.9126C75.3122 26.0329 75.752 24.8767 76.5312 24.8892C76.858 24.9018 77.1596 25.1155 77.4864 25.1029C78.1524 25.0652 78.6049 24.1101 79.271 24.1729C79.648 24.2106 79.9496 24.5751 80.0753 24.9898C80.201 25.4045 80.1758 25.8569 80.1633 26.2968C80.0753 28.2071 79.9873 30.1048 79.8993 32.0151C79.8742 32.5052 79.8616 33.0205 80.025 33.4855C80.1633 33.8625 80.4146 34.1641 80.578 34.5286C80.7414 34.893 80.7791 35.3832 80.5151 35.6596C80.201 35.999 79.5977 35.823 79.3338 36.2252C79.1704 36.464 79.2081 36.8033 79.2835 37.0924C79.3464 37.3814 79.4343 37.683 79.3589 37.9721C79.2207 38.5376 78.0268 38.4371 77.6623 38.3491Z" fill="#343434"/>
<path d="M22.2548 17.4651L27.4882 12.2317L59.0754 43.8188L53.842 49.0522L22.2548 17.4651Z" fill="#FF003B"/>
<path opacity="0.1" d="M22.2643 17.4492L48.1409 43.3258C48.5556 43.1121 48.9829 42.8859 49.3725 42.5969C51.1697 41.3276 51.9489 39.1911 52.2379 36.954L27.4924 12.2211L22.2643 17.4492Z" fill="white"/>
<path opacity="0.1" d="M22.2643 17.4492L28.2339 23.4188C30.7348 22.6144 32.9844 21.3451 35.0706 19.7993L27.4924 12.2211L22.2643 17.4492Z" fill="white"/>
</svg>
