<svg width="23" height="20" viewBox="0 0 23 20" fill="none" xmlns="http://www.w3.org/2000/svg">
<path d="M7.23327 19.2583C15.9129 19.2583 20.6595 11.9492 20.6595 5.61098C20.6595 5.40341 20.6554 5.19678 20.6461 4.99101C21.5697 4.31172 22.3668 3.47065 23 2.50724C22.1545 2.88933 21.2446 3.14649 20.2901 3.26244C21.2644 2.66864 22.0123 1.72923 22.3652 0.609468C21.4389 1.16802 20.4255 1.56177 19.3688 1.77374C18.5077 0.841411 17.2817 0.258301 15.9243 0.258301C13.3184 0.258301 11.2052 2.40635 11.2052 5.05414C11.2052 5.43058 11.2466 5.79661 11.3276 6.14783C7.40567 5.94723 3.928 4.03859 1.60056 1.13639C1.18136 1.86838 0.960874 2.7003 0.961606 3.5472C0.961606 5.21132 1.79465 6.68035 3.06152 7.53981C2.31216 7.51655 1.57924 7.31081 0.924394 6.93989C0.923693 6.96003 0.923693 6.97965 0.923693 7.00116C0.923693 9.32406 2.55024 11.2635 4.70944 11.703C4.30391 11.8153 3.88545 11.872 3.46515 11.8718C3.16161 11.8718 2.86579 11.8414 2.57829 11.7853C3.17905 13.6911 4.92107 15.078 6.98644 15.1167C5.37134 16.4035 3.33682 17.1699 1.1256 17.1699C0.74944 17.1702 0.37359 17.148 0 17.1034C2.08842 18.4641 4.56821 19.258 7.2335 19.258" fill="#1DA1F2"/>
</svg>
